<?xml version="1.0" standalone="no"?>
<!DOCTYPE svg PUBLIC "-//W3C//DTD SVG 20010904//EN"
 "http://www.w3.org/TR/2001/REC-SVG-20010904/DTD/svg10.dtd">
<svg version="1.0" xmlns="http://www.w3.org/2000/svg"
 width="3400.000000pt" height="3400.000000pt" viewBox="0 0 3400.000000 3400.000000"
 preserveAspectRatio="xMidYMid meet">
<metadata>
Created by potrace 1.11, written by Peter Selinger 2001-2013
</metadata>
<g transform="translate(0.000000,3400.000000) scale(0.100000,-0.100000)"
fill="#000000" stroke="none">
<path d="M2000 17010 l0 -3760 3760 0 3760 0 -2 3758 -3 3757 -3757 3 -3758 2
0 -3760z m7220 0 l0 -3470 -3465 0 -3465 0 0 3470 0 3470 3465 0 3465 0 0
-3470z"/>
<path d="M3690 17005 l0 -2145 1070 0 1070 0 0 2145 0 2145 -1070 0 -1070 0 0
-2145z"/>
<path d="M5980 17005 l0 -2145 278 0 c414 0 574 19 777 90 479 168 888 602
1016 1080 57 213 59 242 59 965 0 618 -2 679 -20 785 -31 186 -69 307 -149
471 -170 351 -528 674 -892 805 -209 75 -358 94 -756 94 l-313 0 0 -2145z"/>
<path d="M11380 19165 l0 -1605 718 0 c425 0 754 4 807 10 299 35 570 131 804
288 192 127 391 362 495 582 182 386 205 883 60 1303 -73 210 -186 389 -349
552 -196 196 -427 328 -720 408 -224 62 -308 67 -1107 67 l-708 0 0 -1605z
m1575 972 c400 -107 634 -382 696 -816 15 -108 6 -299 -20 -413 -83 -362 -331
-618 -699 -720 -71 -20 -106 -22 -469 -26 l-393 -3 0 1006 0 1007 393 -4 c388
-4 393 -5 492 -31z"/>
<path d="M14850 19165 l0 -1605 340 0 340 0 0 570 0 570 253 0 252 -1 86 -157
c48 -86 154 -278 236 -427 82 -148 185 -334 228 -412 l79 -143 393 0 394 0
-12 22 c-7 12 -38 65 -69 118 -390 653 -630 1059 -632 1070 -2 6 30 22 70 35
143 49 228 102 341 209 164 158 257 360 282 612 32 327 -73 640 -285 849 -152
150 -349 246 -576 280 -77 12 -251 15 -907 15 l-813 0 0 -1605z m1545 990
c141 -36 243 -113 297 -223 29 -59 33 -77 36 -168 8 -197 -64 -326 -222 -404
-111 -55 -161 -60 -588 -60 l-388 0 0 435 0 435 403 0 c329 0 414 -3 462 -15z"/>
<path d="M18839 20743 c-12 -34 -286 -744 -415 -1078 -51 -132 -136 -352 -188
-490 -53 -137 -132 -342 -176 -455 -236 -608 -440 -1142 -440 -1151 0 -5 152
-9 384 -9 l383 0 47 123 c25 67 70 187 100 267 l54 145 692 0 693 0 100 -267
99 -268 388 0 388 0 -40 103 c-22 56 -67 172 -100 257 -33 85 -96 250 -140
365 -45 116 -120 311 -168 435 -48 124 -123 320 -168 435 -44 116 -128 334
-187 485 -58 151 -137 356 -175 455 -38 99 -112 290 -164 425 l-95 245 -431 3
-430 2 -11 -27z m485 -771 c21 -59 85 -235 141 -392 267 -737 315 -871 315
-875 0 -3 -225 -5 -500 -5 -275 0 -500 2 -500 5 0 3 75 211 166 462 91 252
202 560 247 686 45 125 84 227 87 227 3 0 22 -48 44 -108z"/>
<path d="M21250 19165 l0 -1605 340 0 340 0 0 491 0 491 122 146 c66 81 126
148 132 150 6 1 20 -11 31 -28 11 -16 227 -304 480 -640 l460 -610 422 0 422
0 -680 851 c-600 750 -679 852 -667 867 7 9 87 105 177 212 244 289 309 366
491 580 91 107 253 299 360 425 106 127 202 240 213 253 l20 22 -421 0 -421 0
-193 -242 c-382 -481 -516 -650 -723 -911 -115 -146 -213 -266 -217 -267 -5 0
-8 320 -8 710 l0 710 -340 0 -340 0 0 -1605z"/>
<path d="M24320 19165 l0 -1605 1135 0 1135 0 0 300 0 300 -795 0 -795 0 0
365 0 365 780 0 780 0 0 300 c0 233 -3 300 -12 300 -7 0 -357 1 -778 3 l-765
2 -3 338 -2 337 795 0 795 0 0 300 0 300 -1135 0 -1135 0 0 -1605z"/>
<path d="M24285 16548 c-179 -20 -388 -89 -525 -174 -189 -116 -304 -243 -390
-427 -62 -134 -75 -199 -75 -377 1 -181 15 -250 78 -380 34 -69 59 -102 137
-181 187 -190 389 -286 810 -384 667 -155 820 -233 820 -419 0 -89 -25 -143
-100 -217 -55 -55 -79 -70 -141 -92 -107 -39 -163 -47 -328 -47 -228 0 -393
36 -576 125 -138 67 -268 154 -363 240 -40 37 -74 66 -76 64 -10 -12 -318
-452 -342 -488 l-29 -44 65 -59 c141 -129 393 -274 604 -347 304 -106 766
-133 1106 -65 165 33 370 120 496 210 34 24 99 83 144 130 67 71 90 105 135
198 69 141 95 244 102 411 6 155 -12 280 -57 389 -78 185 -261 357 -503 471
-141 66 -239 97 -584 184 -175 44 -354 92 -398 107 -111 37 -232 101 -259 138
-57 76 -58 175 -3 267 79 132 259 190 527 168 292 -23 565 -130 771 -301 26
-21 49 -38 52 -38 12 0 377 501 372 510 -10 17 -167 135 -236 178 -152 96
-375 183 -564 221 -193 39 -475 51 -670 29z"/>
<path d="M11070 14905 l0 -1605 340 0 340 0 0 575 0 575 484 0 c388 0 501 3
572 15 226 39 403 131 559 289 132 135 208 274 257 473 29 117 31 357 5 481
-42 197 -117 346 -241 479 -120 128 -243 207 -417 266 -162 56 -180 57 -1075
57 l-824 0 0 -1605z m1538 990 c229 -54 354 -220 339 -449 -9 -149 -70 -252
-191 -325 -113 -67 -142 -71 -598 -71 l-408 0 0 430 0 430 398 0 c316 0 410
-3 460 -15z"/>
<path d="M14965 16468 c-9 -24 -61 -158 -115 -298 -54 -140 -187 -484 -295
-765 -108 -280 -309 -802 -447 -1160 -138 -357 -274 -713 -304 -790 -30 -77
-54 -143 -54 -147 0 -4 173 -8 384 -8 l384 0 26 68 c14 37 59 157 100 267 l74
200 693 0 693 0 56 -150 c31 -82 75 -203 99 -267 l43 -118 390 0 c214 0 387 4
384 8 -3 4 -95 242 -205 528 -110 285 -288 749 -396 1029 -108 281 -228 591
-266 690 -38 99 -136 353 -217 565 l-149 385 -430 3 -431 2 -17 -42z m504
-795 c29 -82 136 -377 237 -658 102 -280 189 -520 194 -533 6 -13 10 -27 10
-32 0 -6 -190 -10 -500 -10 -275 0 -500 2 -500 3 0 5 94 266 283 787 91 250
176 485 189 523 12 37 25 67 28 67 3 0 30 -66 59 -147z"/>
<path d="M17383 15438 c3 -944 5 -1083 20 -1153 60 -297 166 -505 341 -673
131 -125 279 -215 467 -280 350 -123 841 -127 1209 -10 400 127 674 394 793
774 63 200 61 156 64 1337 l4 1077 -348 -2 -348 -3 -5 -1045 c-6 -1162 -1
-1081 -75 -1239 -67 -140 -164 -239 -296 -301 -120 -55 -176 -65 -379 -65
-202 0 -279 14 -393 71 -202 102 -327 301 -357 569 -6 54 -10 477 -10 1053 l0
962 -345 0 -346 0 4 -1072z"/>
<path d="M20890 14905 l0 -1605 1025 0 1025 0 0 300 0 300 -680 0 -680 0 0
1305 0 1305 -345 0 -345 0 0 -1605z"/>
<path d="M26300 14905 l0 -1605 1140 0 1140 0 -2 298 -3 297 -797 3 -798 2 0
365 0 365 780 0 780 0 0 300 0 300 -777 2 -778 3 -3 337 -2 338 797 2 798 3 3
298 2 297 -1140 0 -1140 0 0 -1605z"/>
<path d="M29110 14905 l0 -1605 345 0 345 0 0 1036 c0 571 1 1039 4 1041 2 2
57 -70 123 -159 274 -373 1373 -1878 1385 -1897 13 -21 20 -21 350 -21 l338 0
0 1605 0 1605 -345 0 -345 0 -2 -1007 -3 -1007 -199 269 c-365 494 -392 529
-482 651 -49 67 -250 340 -448 608 l-358 486 -354 0 -354 0 0 -1605z"/>
</g>
</svg>
