<?xml version="1.0" standalone="no"?>
<!DOCTYPE svg PUBLIC "-//W3C//DTD SVG 20010904//EN"
 "http://www.w3.org/TR/2001/REC-SVG-20010904/DTD/svg10.dtd">
<svg version="1.0" xmlns="http://www.w3.org/2000/svg"
 width="144.000000pt" height="144.000000pt" viewBox="0 0 144.000000 144.000000"
 preserveAspectRatio="xMidYMid meet">
<metadata>
Created by potrace 1.11, written by Peter Selinger 2001-2013
</metadata>
<g transform="translate(0.000000,144.000000) scale(0.100000,-0.100000)"
fill="#000000" stroke="none">
<path d="M190 720 l0 -130 135 0 135 0 0 130 0 130 -135 0 -135 0 0 -130z
m260 0 l0 -120 -125 0 -125 0 0 120 0 120 125 0 125 0 0 -120z"/>
<path d="M254 787 c-3 -8 -4 -43 -2 -78 l3 -64 60 2 c48 1 63 5 77 23 23 29
23 72 0 100 -23 28 -128 41 -138 17z"/>
<path d="M520 795 l0 -55 35 0 c36 0 75 28 75 53 0 32 -31 57 -71 57 l-39 0 0
-55z m78 6 c4 -23 -11 -41 -35 -41 -8 0 -13 14 -13 36 0 31 3 35 23 32 14 -2
23 -11 25 -27z"/>
<path d="M642 799 c2 -31 8 -54 16 -57 7 -2 12 5 12 17 0 27 7 26 30 -1 10
-13 22 -20 26 -15 4 4 2 13 -4 19 -8 8 -8 15 -1 24 6 7 9 23 7 36 -2 19 -10
23 -46 26 l-43 3 3 -52z m66 19 c-7 -19 -38 -22 -38 -4 0 10 9 16 21 16 12 0
19 -5 17 -12z"/>
<path d="M765 799 c-17 -51 -14 -72 7 -51 15 15 55 16 60 1 2 -7 9 -10 15 -8
7 3 4 22 -10 57 -26 70 -49 70 -72 1z m48 1 c3 -13 0 -20 -9 -20 -8 0 -14 9
-14 20 0 11 4 20 9 20 5 0 11 -9 14 -20z"/>
<path d="M870 795 c0 -56 13 -73 24 -32 l6 22 20 -23 c28 -34 46 -23 20 11
l-22 28 23 25 c29 31 5 33 -28 2 l-23 -21 0 21 c0 12 -4 22 -10 22 -5 0 -10
-25 -10 -55z"/>
<path d="M980 795 l0 -55 40 0 c22 0 40 5 40 10 0 6 -13 10 -30 10 -20 0 -30
5 -30 15 0 10 10 15 30 15 17 0 30 5 30 10 0 6 -13 10 -30 10 -16 0 -30 5 -30
10 0 6 14 10 30 10 17 0 30 5 30 10 0 6 -18 10 -40 10 l-40 0 0 -55z"/>
<path d="M510 645 c0 -54 13 -74 23 -36 2 11 15 21 27 23 28 4 46 29 37 52 -4
11 -19 16 -47 16 l-40 0 0 -55z m63 20 c-4 -15 -36 -12 -41 3 -3 9 3 13 19 10
13 -1 23 -7 22 -13z"/>
<path d="M636 668 c-23 -56 -28 -78 -17 -78 5 0 13 5 16 10 3 6 17 10 31 10
13 0 24 -4 24 -10 0 -5 7 -10 15 -10 18 0 19 -5 -4 55 -23 61 -46 69 -65 23z
m44 -30 c0 -5 -7 -8 -15 -8 -15 0 -20 21 -8 33 7 7 23 -11 23 -25z"/>
<path d="M730 664 c0 -54 15 -74 56 -74 28 0 36 5 44 26 15 39 13 84 -4 84
-10 0 -16 -14 -18 -42 -2 -35 -7 -43 -23 -43 -16 0 -21 8 -23 43 -4 54 -32 60
-32 6z"/>
<path d="M860 645 l0 -55 35 0 c19 0 35 5 35 10 0 6 -11 10 -25 10 -23 0 -25
4 -25 45 0 25 -4 45 -10 45 -5 0 -10 -25 -10 -55z"/>
<path d="M949 684 c-12 -14 -10 -19 10 -35 13 -11 30 -19 38 -19 8 0 11 -5 8
-11 -4 -5 -18 -9 -30 -7 -13 2 -24 -1 -25 -7 0 -5 17 -10 38 -10 31 0 38 4 40
23 3 18 -3 26 -27 35 -37 14 -41 30 -6 25 13 -2 25 2 27 7 5 18 -58 17 -73 -1z"/>
<path d="M1050 645 l0 -55 40 0 c22 0 40 5 40 10 0 6 -14 10 -31 10 -38 0 -35
24 4 28 33 4 26 22 -9 22 -13 0 -24 5 -24 10 0 6 14 10 30 10 17 0 30 5 30 10
0 6 -18 10 -40 10 l-40 0 0 -55z"/>
<path d="M1150 645 c0 -62 17 -75 22 -17 l3 37 23 -37 c35 -56 52 -50 52 17 0
30 -4 55 -10 55 -5 0 -10 -13 -10 -30 0 -16 -4 -30 -8 -30 -4 0 -16 14 -25 30
-29 49 -47 39 -47 -25z"/>
</g>
</svg>
